<?xml version="1.0" encoding="utf-8"?>
<?xml-stylesheet href="mystyle.css" type="text/css"?>
<!-- Generator: Adobe Illustrator 19.2.1, SVG Export Plug-In . SVG Version: 6.00 Build 0)  -->
<svg version="1.1" id="Layer_1" xmlns="http://www.w3.org/2000/svg" xmlns:xlink="http://www.w3.org/1999/xlink" x="0px" y="0px" viewBox="0 0 200 200" style="enable-background:new 0 0 200 200;" xml:space="preserve">
	<style type="text/css">
		.st0 {
			fill: #3D8EB9;
		}
		.st1 {
			enable-background: new;
		}
		.st2 {
			fill: #FFFFFF;
		}
		.st3 {
			display: none;
		}
	</style>
	<circle class="st0" cx="100" cy="100" r="100"/>
	<g class="st1">
		<path
			class="st2"
			d="M131.8,49.8c-3.2-6.1-7.8-11-13.9-14.8c-6.1-3.8-13-5.6-20.6-5.6c-5.6,0-10.9,1.1-15.8,3.2
		c-5,2.2-9.2,5.1-12.7,8.8c-1.1,1.1-2.2,2.6-3.2,4.6c-1,1.9-1.7,4-1.9,6.2c-0.2,2.2,0.2,4.5,1.2,6.8c1,2.3,3.1,4.4,6.1,6.4l55.2,37
		c4.5,3.7,8,8.1,10.6,13.3c2.6,5.2,3.8,10.8,3.8,16.9c0,5.6-1.1,10.8-3.4,15.7c-2.2,4.9-5.3,9.2-9.2,12.8c-3.9,3.7-8.5,6.6-13.8,8.8
		s-10.9,3.2-16.8,3.2c-5.3,0-10.3-0.8-15-2.5c-4.7-1.7-9-4-12.7-7c-3.8-3-6.9-6.4-9.5-10.4c-2.6-4-4.3-8.4-5.3-13.2l4.3-2.9
		c0.5,4.5,1.8,8.6,4.1,12.5c2.2,3.8,5,7.2,8.4,10.1s7.2,5.1,11.6,6.7c4.4,1.6,9.1,2.4,14,2.4c5.6,0,10.8-1,15.6-3.1
		c4.8-2.1,9-4.9,12.5-8.4c1.1-1.1,2.2-2.6,3.4-4.6c1.1-1.9,1.7-4,1.8-6.2c0.1-2.2-0.5-4.6-1.7-7.1c-1.2-2.5-3.5-4.9-6.8-7.3L72,98
		c-5.6-3.7-10-8.4-13.2-14.2c-3.2-5.8-4.8-12-4.8-18.7c0-5.6,1.1-10.8,3.4-15.7c2.2-4.9,5.3-9.2,9.2-12.8c3.9-3.7,8.5-6.6,13.8-8.8
		c5.3-2.2,10.9-3.2,16.8-3.2c8.5,0,16.1,2.1,22.9,6.2c6.8,4.2,12,9.6,15.7,16.3L131.8,49.8z">
		<!-- <animateTransform
			attributeName="transform"
			attributeType="XML"
			type="rotate"
			dur="3s"
			from="0 100 100"
			to="360 100 100"
			repeatCount="indefinite" >

			</animateTransform> -->
		</path>
	</g>
	<path class="st3" d="M157.5,90h-108C47,90,45,88,45,85.5l0,0c0-2.5,2-4.5,4.5-4.5h108c2.5,0,4.5,2,4.5,4.5l0,0
	C162,88,160,90,157.5,90z">

	</path>
</svg>
